# xmcd CD database file
#
# Track frame offsets:
#	150
#	27222
#	58595
#	69647
#	99935
#	114405
#	131590
#	146242
#	167727
#	190850
#	216202
#	234042
#	255987
#	270717
#
# Disc length: 3908 seconds
#
# Revision: 9
# Processed by: cddbd v1.5.2PL0 Copyright (c) Steve Scherf et al.
# Submitted via: CDex 1.77
#
DISCID=c10f420e
DTITLE=Various Artist - The Best Jazz... Ever! [CD 2)
DYEAR=1996
DGENRE=Jazz
TTITLE0=Weather Report - Birdland
TTITLE1=Roy Aymers - Running Away
TTITLE2=Monga Santamaria - Watermelon Man
TTITLE3=Georgie Fame feat. Jon Hendricks - Moondance
TTITLE4=Mose Allison - Do Nothing Till You Hear From Me
TTITLE5=Ramsey Lewis Trio - Wade In The Water
TTITLE6=Style Council - Dropping Bombs On The Whitehouse
TTITLE7=Al Jarreau - (Round, Round, Round) Blue Rondo A La Turk
TTITLE8=Rondy Jordon - So What
TTITLE9=George Benson - Breezin'
TTITLE10=Spyro Gyra - Morning Dance
TTITLE11=Randy Crawford - Last Night At Danceland
TTITLE12=State Of The Heart - The Girl From Ipanema
TTITLE13=Pat Metheny - Travels
EXTD=YEAR: 1996
EXTT0=
EXTT1=
EXTT2=
EXTT3=
EXTT4=
EXTT5=
EXTT6=
EXTT7=
EXTT8=
EXTT9=
EXTT10=
EXTT11=
EXTT12=
EXTT13=
PLAYORDER=
